<?xml version="1.0" encoding="UTF-8" standalone="no"?>
<!-- Generator: Adobe Illustrator 19.0.0, SVG Export Plug-In . SVG Version: 6.00 Build 0)  -->

<svg
   version="1.1"
   id="Layer_1"
   x="0px"
   y="0px"
   viewBox="0 0 324.60001 365.06671"
   xml:space="preserve"
   sodipodi:docname="C-Sharp-01.svg"
   width="324.60001"
   height="365.06671"
   inkscape:version="1.1.1 (3bf5ae0d25, 2021-09-20)"
   xmlns:inkscape="http://www.inkscape.org/namespaces/inkscape"
   xmlns:sodipodi="http://sodipodi.sourceforge.net/DTD/sodipodi-0.dtd"
   xmlns="http://www.w3.org/2000/svg"
   xmlns:svg="http://www.w3.org/2000/svg"><defs
   id="defs41" /><sodipodi:namedview
   id="namedview39"
   pagecolor="#505050"
   bordercolor="#eeeeee"
   borderopacity="1"
   inkscape:pageshadow="0"
   inkscape:pageopacity="0"
   inkscape:pagecheckerboard="0"
   showgrid="false"
   fit-margin-top="0"
   fit-margin-left="0"
   fit-margin-right="0"
   fit-margin-bottom="0"
   inkscape:zoom="1.618"
   inkscape:cx="-15.142151"
   inkscape:cy="182.63288"
   inkscape:window-width="1920"
   inkscape:window-height="1017"
   inkscape:window-x="1072"
   inkscape:window-y="379"
   inkscape:window-maximized="1"
   inkscape:current-layer="Layer_1" />
<style
   type="text/css"
   id="style26">
	.st0{fill:#9A4993;}
	.st1{fill:#6A1577;}
	.st2{fill:#813084;}
	.st3{fill:#FFFFFF;}
</style>
<path
   id="XMLID_3_"
   class="st0"
   d="m 324.6,107.21424 c 0,-6.1 -1.3,-11.600004 -4,-16.200004 -2.6,-4.6 -6.5,-8.4 -11.7,-11.4 -43.2,-24.9 -86.5,-49.8 -129.7,-74.7000001 -11.7,-6.7 -22.9,-6.5 -34.5,0.3 C 127.5,15.314236 41.3,64.714236 15.7,79.614236 c -10.6,6.1 -15.7,15.5 -15.7,27.700004 0,50.1 0,100.3 0,150.4 0,6 1.3,11.3 3.8,15.9 2.6,4.7 6.6,8.7 11.9,11.8 25.7,14.9 111.8,64.2 129,74.4 11.6,6.8 22.9,7.1 34.5,0.3 43.2,-25 86.5,-49.8 129.7,-74.7 5.4,-3.1 9.3,-7 11.9,-11.8 2.5,-4.6 3.8,-9.9 3.8,-15.9 0,-0.1 0,-100.4 0,-150.5" />
<path
   id="XMLID_4_"
   class="st1"
   d="m 162.7,181.91424 -159.1,91.6 c 2.6,4.7 6.6,8.7 11.9,11.8 25.7,14.9 111.8,64.2 129,74.4 11.6,6.8 22.9,7.1 34.5,0.3 43.2,-25 86.5,-49.8 129.7,-74.7 5.4,-3.1 9.3,-7 11.9,-11.8 l -157.9,-91.6" />
<path
   id="XMLID_5_"
   class="st1"
   d="m 115.6,209.01424 c 9.3,16.2 26.7,27.1 46.6,27.1 20.1,0 37.6,-11 46.8,-27.4 l -46.3,-26.8 -47.1,27.1" />
<path
   id="XMLID_6_"
   class="st2"
   d="m 324.6,107.21424 c 0,-6.1 -1.3,-11.600004 -4,-16.200004 l -157.9,90.900004 158.1,91.6 c 2.5,-4.6 3.8,-9.9 3.8,-15.9 0,0 0,-100.3 0,-150.4" />
<path
   id="XMLID_9_"
   class="st3"
   d="m 209,208.71424 c -9.2,16.3 -26.7,27.4 -46.8,27.4 -20,0 -37.4,-10.9 -46.6,-27.1 -4.5,-7.9 -7.1,-16.9 -7.1,-26.6 0,-29.7 24,-53.7 53.7,-53.7 19.8,0 37.1,10.8 46.4,26.8 l 46.9,-27 C 236.8,96.314236 202,74.614236 162.1,74.614236 c -59.6,0 -107.8,48.300004 -107.8,107.800004 0,19.5 5.2,37.9 14.3,53.7 18.6,32.3 53.6,54.1 93.6,54.1 40.1,0 75.1,-21.9 93.7,-54.4 l -46.9,-27.1" />
<g
   id="XMLID_32_"
   transform="translate(-87.8,-67.585764)">
	<rect
   id="XMLID_2_"
   x="345.39999"
   y="224.5"
   class="st3"
   width="10.7"
   height="51.700001" />
	<rect
   id="XMLID_30_"
   x="369.10001"
   y="224.5"
   class="st3"
   width="10.7"
   height="51.700001" />
	<rect
   id="XMLID_31_"
   x="336.79999"
   y="233.2"
   class="st3"
   width="51.700001"
   height="10.7" />
	<rect
   id="XMLID_23_"
   x="336.79999"
   y="256.79999"
   class="st3"
   width="51.700001"
   height="10.7" />
</g>
</svg>
